<svg width="185" height="229" fill="none" xmlns="http://www.w3.org/2000/svg"><circle cx="63.834" cy="7.093" r="7.093" fill="#EE3364" fill-opacity=".5"/><circle cx="92.204" cy="7.093" r="7.093" fill="#EE3364" fill-opacity=".5"/><circle cx="120.574" cy="7.093" r="7.093" fill="#EE3364" fill-opacity=".5"/><circle cx="63.834" cy="49.648" r="7.093" fill="#EE3364" fill-opacity=".5"/><circle cx="35.463" cy="49.648" r="7.093" fill="#EE3364" fill-opacity=".5"/><circle cx="7.093" cy="49.648" r="7.093" fill="#EE3364" fill-opacity=".5"/><circle cx="7.093" cy="7.093" r="7.093" fill="#EE3364" fill-opacity=".5"/><circle cx="35.463" cy="7.093" r="7.093" fill="#EE3364" fill-opacity=".5"/><circle cx="92.204" cy="49.648" r="7.093" fill="#EE3364" fill-opacity=".5"/><circle cx="120.574" cy="49.648" r="7.093" fill="#EE3364" fill-opacity=".5"/><circle cx="148.945" cy="49.648" r="7.093" fill="#EE3364" fill-opacity=".5"/><circle cx="177.315" cy="49.648" r="7.093" fill="#EE3364" fill-opacity=".5"/><circle cx="177.315" cy="7.093" r="7.093" fill="#EE3364" fill-opacity=".5"/><circle cx="148.945" cy="7.093" r="7.093" fill="#EE3364" fill-opacity=".5"/><circle cx="63.834" cy="92.204" r="7.093" fill="#EE3364" fill-opacity=".5"/><circle cx="35.463" cy="92.204" r="7.093" fill="#EE3364" fill-opacity=".5"/><circle cx="7.093" cy="92.204" r="7.093" fill="#EE3364" fill-opacity=".5"/><circle cx="92.204" cy="92.204" r="7.093" fill="#EE3364" fill-opacity=".5"/><circle cx="120.574" cy="92.204" r="7.093" fill="#EE3364" fill-opacity=".5"/><circle cx="148.945" cy="92.204" r="7.093" fill="#EE3364" fill-opacity=".5"/><circle cx="177.315" cy="92.204" r="7.093" fill="#EE3364" fill-opacity=".5"/><circle cx="63.834" cy="134.76" r="7.093" fill="#EE3364" fill-opacity=".5"/><circle cx="35.463" cy="134.76" r="7.093" fill="#EE3364" fill-opacity=".5"/><circle cx="7.093" cy="134.76" r="7.093" fill="#EE3364" fill-opacity=".5"/><circle cx="92.204" cy="134.76" r="7.093" fill="#EE3364" fill-opacity=".5"/><circle cx="120.574" cy="134.76" r="7.093" fill="#EE3364" fill-opacity=".5"/><circle cx="148.945" cy="134.76" r="7.093" fill="#EE3364" fill-opacity=".5"/><circle cx="177.315" cy="134.76" r="7.093" fill="#EE3364" fill-opacity=".5"/><circle cx="63.834" cy="177.315" r="7.093" fill="#EE3364" fill-opacity=".5"/><circle cx="35.463" cy="177.315" r="7.093" fill="#EE3364" fill-opacity=".5"/><circle cx="7.093" cy="177.315" r="7.093" fill="#EE3364" fill-opacity=".5"/><circle cx="35.463" cy="220.286" r="7.093" fill="#EE3364" fill-opacity=".5"/><circle cx="7.093" cy="221.644" r="7.093" fill="#EE3364" fill-opacity=".5"/><circle cx="92.204" cy="177.315" r="7.093" fill="#EE3364" fill-opacity=".5"/><circle cx="120.574" cy="177.315" r="7.093" fill="#EE3364" fill-opacity=".5"/><circle cx="148.945" cy="177.315" r="7.093" fill="#EE3364" fill-opacity=".5"/><circle cx="148.945" cy="220.286" r="7.093" fill="#EE3364" fill-opacity=".5"/><circle cx="177.315" cy="177.315" r="7.093" fill="#EE3364" fill-opacity=".5"/><circle cx="177.315" cy="219.871" r="7.093" fill="#EE3364" fill-opacity=".5"/><circle cx="63.834" cy="220.286" r="7.093" fill="#EE3364" fill-opacity=".5"/><circle cx="92.204" cy="220.286" r="7.093" fill="#EE3364" fill-opacity=".5"/><circle cx="120.574" cy="220.286" r="7.093" fill="#EE3364" fill-opacity=".5"/></svg>