<svg width="400" height="51" fill="none" xmlns="http://www.w3.org/2000/svg"><g clip-path="url(#a)"><path d="M208.202 3.781h4.703l-9.358 34.837h-4.607l-7.547-22.963h-.197l-7.548 22.963h-4.607l-9.747-34.837h4.703l7.398 27.396h.197l7.596-22.72h4.213l7.595 22.72h.197l7.009-27.396ZM212.479 26.698c0-3.665 1.161-6.696 3.478-9.097 2.354-2.401 5.311-3.602 8.868-3.602 3.558 0 6.504 1.2 8.821 3.602 2.354 2.401 3.526 5.432 3.526 9.097 0 3.697-1.177 6.732-3.526 9.096-2.323 2.401-5.263 3.602-8.821 3.602-3.563 0-6.519-1.2-8.868-3.602-2.317-2.395-3.478-5.431-3.478-9.096Zm4.506 0c0 2.565.751 4.638 2.253 6.23 1.502 1.592 3.366 2.385 5.587 2.385 2.221 0 4.086-.793 5.588-2.385 1.502-1.587 2.253-3.665 2.253-6.23 0-2.528-.751-4.591-2.253-6.178-1.534-1.623-3.398-2.432-5.588-2.432-2.189 0-4.053.809-5.587 2.432-1.502 1.587-2.253 3.65-2.253 6.178ZM244.884 38.618h-4.506V14.777h4.314v3.892h.197c.459-1.264 1.396-2.343 2.818-3.237 1.422-.893 2.818-1.338 4.192-1.338 1.305 0 2.418.196 3.334.582l-1.374 4.332c-.554-.228-1.438-.339-2.647-.339-1.699 0-3.18.683-4.437 2.042-1.257 1.364-1.886 2.95-1.886 4.77v13.137h-.005ZM278.429 38.618h-5.438l-7.5-11.238-3.675 3.602v7.636h-4.506V3.781h4.506v21.457l10.386-10.461h5.785v.196l-9.358 9.244 9.8 14.206v.195Z" fill="#5F6368"/><path d="M297.939 32.002c0 2.079-.916 3.83-2.743 5.257-1.833 1.428-4.133 2.142-6.908 2.142-2.419 0-4.544-.624-6.371-1.872-1.832-1.248-3.137-2.893-3.92-4.94l4.016-1.703c.586 1.428 1.444 2.539 2.573 3.332 1.129.793 2.359 1.19 3.702 1.19 1.438 0 2.636-.307 3.6-.925.964-.614 1.444-1.344 1.444-2.19 0-1.523-1.178-2.644-3.526-3.358l-4.118-1.021c-4.671-1.169-7.009-3.406-7.009-6.717 0-2.173.89-3.919 2.669-5.23 1.778-1.312 4.058-1.973 6.833-1.973 2.125 0 4.043.502 5.758 1.507 1.715 1.005 2.913 2.354 3.6 4.04l-4.016 1.656c-.458-1.005-1.198-1.793-2.231-2.358-1.028-.566-2.179-.852-3.457-.852-1.177 0-2.232.29-3.159.878-.926.587-1.395 1.296-1.395 2.142 0 1.364 1.289 2.337 3.872 2.92l3.627.925c4.773 1.163 7.159 3.549 7.159 7.15ZM313.592 39.396c-1.763 0-3.371-.376-4.825-1.121-1.454-.746-2.573-1.735-3.356-2.967h-.197l.197 3.31v10.51h-4.506V14.776h4.315v3.31h.197c.783-1.232 1.901-2.22 3.355-2.966s3.063-1.122 4.826-1.122c3.169 0 5.848 1.233 8.037 3.697 2.253 2.496 3.382 5.5 3.382 9.002 0 3.538-1.129 6.536-3.382 9.001-2.194 2.465-4.874 3.697-8.043 3.697Zm-.735-4.083c2.157 0 3.968-.81 5.438-2.433 1.47-1.586 2.205-3.65 2.205-6.177 0-2.496-.735-4.559-2.205-6.177-1.47-1.624-3.281-2.433-5.438-2.433-2.189 0-4.016.809-5.486 2.433-1.438 1.623-2.157 3.68-2.157 6.177 0 2.528.719 4.606 2.157 6.23 1.465 1.581 3.297 2.38 5.486 2.38ZM337.358 14c3.334 0 5.96.883 7.888 2.649 1.928 1.767 2.892 4.194 2.892 7.272v14.692h-4.314v-3.31h-.197c-1.864 2.723-4.346 4.088-7.446 4.088-2.647 0-4.857-.778-6.642-2.338-1.779-1.555-2.668-3.501-2.668-5.839 0-2.464.937-4.426 2.817-5.886 1.881-1.46 4.384-2.19 7.521-2.19 2.679 0 4.884.487 6.615 1.46v-1.02c0-1.556-.623-2.878-1.864-3.967-1.241-1.085-2.695-1.63-4.362-1.63-2.514 0-4.506 1.053-5.976 3.163l-3.968-2.48c2.189-3.11 5.422-4.665 9.704-4.665Zm-5.832 17.32c0 1.169.495 2.142 1.497 2.92.996.777 2.162 1.168 3.504 1.168 1.896 0 3.585-.698 5.071-2.094 1.486-1.396 2.232-3.03 2.232-4.913-1.407-1.1-3.367-1.656-5.881-1.656-1.832 0-3.355.44-4.58 1.312-1.23.878-1.843 1.967-1.843 3.263ZM363.419 39.396c-3.563 0-6.519-1.2-8.868-3.602-2.322-2.464-3.478-5.5-3.478-9.096 0-3.665 1.161-6.696 3.478-9.097 2.354-2.401 5.311-3.602 8.868-3.602 2.451 0 4.592.609 6.419 1.825 1.826 1.216 3.201 2.893 4.117 5.035l-4.117 1.703c-1.273-2.983-3.51-4.474-6.711-4.474-2.056 0-3.841.825-5.343 2.48-1.47 1.655-2.205 3.697-2.205 6.13s.735 4.474 2.205 6.13c1.502 1.655 3.281 2.48 5.343 2.48 3.296 0 5.619-1.492 6.956-4.475l4.016 1.703c-.885 2.142-2.264 3.819-4.139 5.035-1.875 1.217-4.059 1.825-6.541 1.825ZM387.68 39.396c-3.526 0-6.434-1.2-8.724-3.602-2.285-2.4-3.43-5.431-3.43-9.096 0-3.634 1.108-6.659 3.334-9.076 2.221-2.417 5.065-3.623 8.527-3.623 3.558 0 6.397 1.143 8.501 3.433 2.109 2.285 3.159 5.49 3.159 9.61l-.048.486h-18.866c.064 2.338.847 4.215 2.354 5.643 1.502 1.428 3.297 2.142 5.39 2.142 2.877 0 5.13-1.428 6.765-4.284l4.016 1.946c-1.076 2.01-2.573 3.586-4.485 4.718-1.912 1.132-4.075 1.703-6.493 1.703Zm-7.201-15.57h13.769c-.134-1.655-.81-3.025-2.035-4.11-1.225-1.084-2.866-1.628-4.927-1.628-1.699 0-3.158.518-4.383 1.554-1.225 1.042-2.035 2.433-2.424 4.184Z" fill="#5F6368"/><path d="M20.112 39.39C9.182 39.39 0 30.549 0 19.696 0 8.843 9.182 0 20.112 0c6.045 0 10.343 2.353 13.582 5.426l-3.82 3.792c-2.321-2.163-5.464-3.845-9.762-3.845-7.973 0-14.21 6.39-14.21 14.317 0 7.928 6.237 14.311 14.21 14.311 5.172 0 8.122-2.062 10.008-3.94 1.544-1.539 2.562-3.744 2.95-6.775H19.969v-5.368h18.365c.192.963.288 2.116.288 3.364 0 4.035-1.114 9.033-4.688 12.587-3.478 3.596-7.925 5.522-13.821 5.522Z" fill="#4285F4"/><path d="M66.13 26.708c0 7.304-5.747 12.683-12.793 12.683-7.047 0-12.8-5.384-12.8-12.683 0-7.351 5.748-12.682 12.794-12.682 7.047 0 12.8 5.33 12.8 12.682Zm-5.603 0c0-4.564-3.334-7.684-7.196-7.684-3.861 0-7.195 3.12-7.195 7.684 0 4.517 3.334 7.685 7.195 7.685 3.867 0 7.196-3.174 7.196-7.685Z" fill="#EA4335"/><path d="M93.981 26.708c0 7.304-5.746 12.683-12.793 12.683-7.047 0-12.8-5.384-12.8-12.683 0-7.351 5.748-12.682 12.794-12.682 7.047 0 12.8 5.33 12.8 12.682Zm-5.603 0c0-4.564-3.334-7.684-7.195-7.684-3.862 0-7.196 3.12-7.196 7.684 0 4.517 3.334 7.685 7.196 7.685 3.861 0 7.195-3.174 7.195-7.685Z" fill="#FBBC04"/><path d="M120.623 14.793V37.56c0 9.366-5.56 13.21-12.133 13.21-6.189 0-9.912-4.13-11.313-7.493l4.884-2.015c.868 2.068 2.999 4.516 6.429 4.516 4.208 0 6.818-2.591 6.818-7.446v-1.825h-.192c-1.257 1.54-3.675 2.883-6.722 2.883-6.381 0-12.229-5.522-12.229-12.635 0-7.156 5.848-12.73 12.229-12.73 3.047 0 5.465 1.343 6.722 2.834h.192v-2.067h5.315Zm-4.932 11.963c0-4.47-2.999-7.732-6.818-7.732-3.866 0-7.105 3.268-7.105 7.732 0 4.421 3.239 7.637 7.105 7.637 3.819 0 6.818-3.221 6.818-7.637Z" fill="#4285F4"/><path d="M130.264 1.343v37.275h-5.609V1.343h5.609Z" fill="#34A853"/><path d="m152 30.886 4.352 2.883c-1.401 2.068-4.789 5.622-10.637 5.622-7.249 0-12.666-5.575-12.666-12.683 0-7.542 5.465-12.682 12.038-12.682 6.62 0 9.858 5.236 10.924 8.07l.58 1.439-17.065 7.013c1.305 2.544 3.334 3.845 6.189 3.845 2.85 0 4.836-1.391 6.285-3.507Zm-13.39-4.564 11.409-4.707c-.629-1.586-2.514-2.692-4.735-2.692-2.855 0-6.818 2.502-6.674 7.4Z" fill="#EA4335"/></g><defs><clipPath id="a"><path fill="#fff" d="M0 0h400v50.772H0z"/></clipPath></defs></svg>