<svg width="185" height="197" viewBox="0 0 185 197" fill="none" xmlns="http://www.w3.org/2000/svg">
<circle cx="93" cy="98.9999" r="57.5" stroke="black"/>
<circle cx="93" cy="98.9999" r="91.5" stroke="black"/>
<path d="M18.6124 67.7527L28.9669 76.1999L28.2081 78.4515L14.8471 78.9253L15.5484 76.8443L26.5918 76.6531L17.9226 69.7996L18.6124 67.7527Z" fill="black"/>
<path d="M20.1927 63.7141L31.4024 69.2677L30.4915 71.1064L19.2818 65.5528L20.1927 63.7141Z" fill="black"/>
<path d="M24.7464 59.3662L27.8851 61.2719L30.1272 57.5793L31.5581 58.4481L29.316 62.1407L32.5932 64.1306L35.1155 59.9764L36.5464 60.8452L32.9591 66.7534L22.2505 60.2514L25.8378 54.3431L27.2687 55.2119L24.7464 59.3662Z" fill="black"/>
<path d="M38.0629 39.2793L45.0396 50.3055L43.5111 52.0535L34.6537 47.7994L39.9447 56.1321L38.4416 57.8784L26.6764 52.3011L28.1101 50.6615L37.4858 55.4166L31.6647 46.5965L33.1813 44.862L42.5282 49.568L36.6174 40.9324L38.0629 39.2793Z" fill="black"/>
<path d="M59.3136 25.7399L65.2753 36.738L63.4713 37.7159L59.3882 30.1834L60.1165 39.5345L58.8663 40.2121L51.4126 34.5067L55.4957 42.0392L53.6917 43.0171L47.73 32.019L49.6764 30.9639L58.2126 37.4953L57.383 26.7865L59.3136 25.7399Z" fill="black"/>
<path d="M72.4927 34.6611C71.3785 34.9977 70.2723 35.0499 69.1741 34.8176C68.084 34.5703 67.1227 34.0648 66.2902 33.3009C65.4657 32.5221 64.8764 31.5469 64.5224 30.3752C64.1684 29.2035 64.1207 28.0709 64.3795 26.9773C64.6497 25.8802 65.172 24.9327 65.9463 24.1346C66.7285 23.3216 67.6768 22.7468 68.791 22.4101C69.9168 22.0699 71.0247 22.0235 72.1148 22.2708C73.213 22.5031 74.1725 23.0029 74.9936 23.7702C75.8146 24.5376 76.4021 25.5071 76.7561 26.6787C77.1102 27.8504 77.1595 28.9888 76.9043 30.0939C76.6455 31.1875 76.125 32.1408 75.3427 32.9538C74.5684 33.7518 73.6184 34.3209 72.4927 34.6611ZM71.9773 32.9552C72.7699 32.7157 73.4225 32.3242 73.9353 31.7807C74.4445 31.2257 74.7708 30.563 74.9141 29.7926C75.0654 29.0073 75.0074 28.1724 74.7402 27.2879C74.4729 26.4034 74.0606 25.6818 73.5032 25.1231C72.9572 24.561 72.3203 24.1956 71.5924 24.0269C70.8645 23.8583 70.1043 23.8937 69.3117 24.1332C68.5191 24.3726 67.8664 24.7641 67.3537 25.3077C66.841 25.8512 66.5072 26.5099 66.3525 27.2837C66.2092 28.0541 66.2711 28.8815 66.5384 29.7661C66.8056 30.6506 67.214 31.3796 67.7634 31.9532C68.3208 32.5119 68.9651 32.8813 69.6965 33.0615C70.4244 33.2301 71.1847 33.1947 71.9773 32.9552Z" fill="black"/>
<path d="M85.1695 31.6432L81.6072 27.0995L80.0571 27.3222L80.7687 32.2754L78.7375 32.5672L76.9587 20.1843L81.2348 19.57C82.185 19.4335 83.0107 19.4846 83.7118 19.7233C84.4247 19.9604 84.9816 20.335 85.3825 20.8472C85.7953 21.3577 86.0512 21.9574 86.1502 22.6463C86.2662 23.454 86.1344 24.2246 85.7549 24.958C85.3855 25.6779 84.7308 26.2265 83.791 26.604L87.5926 31.2951L85.1695 31.6432ZM79.8242 25.7009L82.0692 25.3784C82.8294 25.2692 83.3722 24.9972 83.6977 24.5625C84.0351 24.1261 84.1577 23.5872 84.0656 22.9458C83.9734 22.3044 83.7117 21.8328 83.2804 21.531C82.8474 21.2174 82.2449 21.1161 81.4728 21.227L79.2279 21.5495L79.8242 25.7009Z" fill="black"/>
<path d="M91.4261 21.0975L91.4768 24.7691L95.7964 24.7094L95.8195 26.3833L91.4999 26.443L91.5529 30.2766L96.4124 30.2095L96.4355 31.8833L89.5242 31.9788L89.3511 19.452L96.2625 19.3565L96.2856 21.0303L91.4261 21.0975Z" fill="black"/>
<path d="M115.347 26.4938C115.187 27.1091 114.89 27.6517 114.457 28.1215C114.024 28.5914 113.443 28.917 112.713 29.0985C111.987 29.2683 111.124 29.2228 110.126 28.9619L107.931 28.3886L106.648 33.2997L104.663 32.7809L107.825 20.6773L112.005 21.7694C112.934 22.0121 113.675 22.3794 114.229 22.8713C114.797 23.3547 115.167 23.9101 115.337 24.5377C115.52 25.1684 115.523 25.8204 115.347 26.4938ZM110.549 27.3423C111.304 27.5395 111.911 27.5183 112.37 27.2786C112.833 27.0274 113.146 26.5883 113.31 25.9614C113.656 24.6378 113.08 23.7803 111.582 23.389L109.388 22.8157L108.355 26.7689L110.549 27.3423Z" fill="black"/>
<path d="M119.75 37.9631L118.964 32.2433L117.513 31.6543L115.631 36.2908L113.73 35.519L118.435 23.9277L122.438 25.5526C123.327 25.9137 124.015 26.374 124.5 26.9336C124.996 27.4977 125.288 28.1019 125.376 28.7464C125.476 29.3953 125.394 30.0423 125.132 30.6872C124.825 31.4432 124.323 32.0423 123.626 32.4844C122.944 32.9199 122.102 33.0638 121.1 32.9161L122.019 38.8839L119.75 37.9631ZM118.129 30.1366L120.231 30.9897C120.942 31.2785 121.548 31.3173 122.048 31.1059C122.56 30.8991 122.937 30.4954 123.181 29.895C123.425 29.2946 123.436 28.7554 123.216 28.2774C123 27.7883 122.531 27.397 121.808 27.1036L119.707 26.2506L118.129 30.1366Z" fill="black"/>
<path d="M128.008 42.6245C127.013 42.0193 126.236 41.2302 125.677 40.2573C125.133 39.2804 124.868 38.227 124.882 37.0973C124.912 35.9635 125.245 34.8738 125.881 33.8283C126.518 32.7828 127.329 31.9915 128.317 31.4545C129.314 30.9237 130.368 30.6804 131.479 30.7245C132.607 30.7647 133.668 31.0873 134.662 31.6926C135.667 32.304 136.441 33.0982 136.984 34.0751C137.544 35.0481 137.812 36.0963 137.788 37.2198C137.764 38.3433 137.434 39.4279 136.798 40.4734C136.161 41.5189 135.346 42.3153 134.353 42.8626C133.366 43.3996 132.309 43.648 131.181 43.6079C130.07 43.5638 129.012 43.236 128.008 42.6245ZM128.934 41.1023C129.641 41.5329 130.369 41.7577 131.116 41.7769C131.869 41.7858 132.58 41.5866 133.249 41.1793C133.935 40.7679 134.518 40.1676 134.999 39.3784C135.479 38.5891 135.742 37.8005 135.786 37.0125C135.84 36.2308 135.687 35.5126 135.327 34.8579C134.967 34.2032 134.433 33.6606 133.726 33.2301C133.019 32.7996 132.292 32.5747 131.545 32.5556C130.798 32.5364 130.085 32.7273 129.405 33.1284C128.736 33.5358 128.161 34.1341 127.68 34.9233C127.2 35.7126 126.929 36.5032 126.869 37.2952C126.824 38.0831 126.979 38.8096 127.333 39.4745C127.693 40.1292 128.227 40.6718 128.934 41.1023Z" fill="black"/>
<path d="M147.616 41.8723L141.454 48.4567C140.692 49.2715 139.839 49.6818 138.897 49.6876C137.964 49.7015 137.094 49.3313 136.288 48.5769C135.482 47.8226 135.051 46.9751 134.994 46.0346C134.946 45.1023 135.303 44.2288 136.066 43.4139L137.577 44.8284C137.209 45.2396 137.01 45.6537 136.982 46.0706C136.962 46.4958 137.145 46.8888 137.53 47.2495C137.916 47.6103 138.32 47.7667 138.743 47.7188C139.174 47.662 139.574 47.4365 139.943 47.0422L146.105 40.4579L147.616 41.8723Z" fill="black"/>
<path d="M149.575 46.5959L146.889 49.0998L149.835 52.2597L148.61 53.4012L145.664 50.2414L142.86 52.8558L146.174 56.4106L144.95 57.5521L140.236 52.4964L149.4 43.9535L154.113 49.0091L152.889 50.1507L149.575 46.5959Z" fill="black"/>
<path d="M150.557 54.6545C151.596 54.0075 152.677 53.6665 153.8 53.6314C154.93 53.6066 155.981 53.864 156.953 54.4037C157.942 54.9472 158.744 55.713 159.359 56.701C160.063 57.8317 160.408 59.0095 160.393 60.2345C160.395 61.4632 160.01 62.5934 159.239 63.625L157.935 61.5317C158.324 60.9077 158.504 60.2657 158.475 59.6055C158.445 58.9453 158.231 58.2943 157.831 57.6525C157.393 56.9497 156.845 56.4215 156.187 56.0681C155.529 55.7147 154.806 55.564 154.018 55.6161C153.237 55.6784 152.455 55.9538 151.67 56.4422C150.886 56.9307 150.293 57.5116 149.893 58.1851C149.499 58.8688 149.31 59.5872 149.326 60.3402C149.353 61.0869 149.585 61.8117 150.023 62.5146C150.423 63.1563 150.912 63.636 151.492 63.9537C152.071 64.2714 152.727 64.3933 153.458 64.3195L154.762 66.4128C153.496 66.6499 152.312 66.4965 151.21 65.9528C150.114 65.4193 149.215 64.5872 148.51 63.4565C147.889 62.4583 147.55 61.4039 147.495 60.2933C147.45 59.1764 147.687 58.1166 148.208 57.1139C148.735 56.1213 149.518 55.3015 150.557 54.6545Z" fill="black"/>
<path d="M165.89 70.6117L164.359 71.2892L163.011 68.2441L153.102 72.6295L152.272 70.7531L162.181 66.3676L160.826 63.3061L162.356 62.6286L165.89 70.6117Z" fill="black"/>
<path d="M155.274 79.3743C155.038 78.5682 154.963 77.8022 155.051 77.0763C155.15 76.3471 155.405 75.7223 155.815 75.202C156.225 74.6816 156.776 74.3203 157.467 74.1179L158.084 76.2253C157.579 76.4232 157.212 76.7495 156.983 77.2043C156.757 77.6707 156.74 78.2321 156.932 78.8885C157.131 79.5679 157.448 80.0504 157.881 80.336C158.327 80.6182 158.809 80.6834 159.327 80.5316C159.73 80.4135 160.023 80.1965 160.205 79.8804C160.391 79.5759 160.501 79.2248 160.534 78.8274C160.571 78.4414 160.579 77.9139 160.558 77.2448C160.536 76.401 160.556 75.7011 160.619 75.1452C160.696 74.5974 160.908 74.085 161.256 73.608C161.604 73.1309 162.152 72.7827 162.901 72.5635C163.592 72.361 164.247 72.3567 164.866 72.5504C165.486 72.744 166.025 73.1113 166.483 73.6522C166.942 74.1931 167.291 74.8724 167.53 75.69C167.871 76.8531 167.856 77.8892 167.484 78.7983C167.128 79.7155 166.455 80.3629 165.465 80.7404L164.827 78.5638C165.255 78.4011 165.568 78.0842 165.768 77.6131C165.968 77.1419 165.976 76.5954 165.794 75.9736C165.629 75.4093 165.35 74.9908 164.958 74.7182C164.565 74.4455 164.098 74.3885 163.557 74.547C163.188 74.655 162.915 74.8538 162.738 75.1434C162.575 75.4412 162.475 75.7831 162.438 76.169C162.401 76.555 162.389 77.071 162.404 77.7171C162.418 78.5758 162.388 79.2848 162.314 79.8441C162.244 80.4149 162.029 80.9405 161.669 81.4209C161.325 81.9095 160.772 82.2651 160.012 82.4877C159.402 82.6665 158.777 82.6682 158.138 82.4928C157.502 82.3289 156.925 81.9792 156.405 81.4437C155.901 80.9163 155.524 80.2265 155.274 79.3743Z" fill="black"/>
<path d="M166.073 128.731L155.719 120.283L156.478 118.031L169.839 117.559L169.138 119.64L158.094 119.83L166.763 126.684L166.073 128.731Z" fill="black"/>
<path d="M164.492 132.769L153.283 127.215L154.194 125.376L165.403 130.931L164.492 132.769Z" fill="black"/>
<path d="M159.938 137.117L156.8 135.211L154.557 138.903L153.127 138.034L155.369 134.342L152.092 132.352L149.569 136.506L148.138 135.637L151.726 129.729L162.434 136.232L158.846 142.14L157.416 141.271L159.938 137.117Z" fill="black"/>
<path d="M146.62 157.203L139.644 146.176L141.173 144.428L150.03 148.683L144.74 140.35L146.243 138.603L158.008 144.182L156.574 145.821L147.199 141.065L153.019 149.886L151.502 151.62L142.156 146.913L148.066 155.55L146.62 157.203Z" fill="black"/>
<path d="M125.368 170.74L119.408 159.742L121.212 158.764L125.294 166.297L124.567 156.946L125.817 156.268L133.27 161.974L129.188 154.441L130.992 153.463L136.953 164.462L135.006 165.517L126.47 158.985L127.299 169.694L125.368 170.74Z" fill="black"/>
<path d="M112.19 161.818C113.304 161.481 114.41 161.429 115.509 161.662C116.599 161.909 117.56 162.415 118.392 163.179C119.217 163.958 119.806 164.933 120.16 166.105C120.514 167.276 120.561 168.409 120.303 169.502C120.032 170.599 119.51 171.547 118.736 172.345C117.953 173.158 117.005 173.733 115.891 174.069C114.765 174.409 113.657 174.456 112.567 174.208C111.469 173.976 110.509 173.476 109.688 172.709C108.867 171.941 108.28 170.972 107.926 169.8C107.572 168.628 107.523 167.49 107.778 166.385C108.037 165.291 108.558 164.338 109.34 163.525C110.114 162.727 111.064 162.158 112.19 161.818ZM112.705 163.524C111.913 163.763 111.26 164.155 110.747 164.698C110.238 165.253 109.912 165.916 109.768 166.686C109.617 167.472 109.675 168.306 109.942 169.191C110.209 170.076 110.621 170.797 111.179 171.356C111.725 171.918 112.362 172.283 113.089 172.452C113.817 172.621 114.578 172.586 115.37 172.346C116.163 172.107 116.815 171.715 117.328 171.172C117.841 170.628 118.175 169.97 118.33 169.196C118.473 168.425 118.411 167.598 118.144 166.713C117.877 165.829 117.468 165.1 116.919 164.526C116.362 163.968 115.717 163.598 114.986 163.418C114.258 163.249 113.498 163.284 112.705 163.524Z" fill="black"/>
<path d="M99.5129 164.835L103.075 169.379L104.625 169.156L103.914 164.203L105.945 163.911L107.723 176.294L103.447 176.908C102.496 177.045 101.671 176.994 100.97 176.755C100.257 176.518 99.6998 176.143 99.2989 175.631C98.8862 175.12 98.6303 174.521 98.5314 173.832C98.4155 173.024 98.5473 172.253 98.9269 171.52C99.2964 170.8 99.9511 170.252 100.891 169.874L97.0897 165.183L99.5129 164.835ZM104.858 170.778L102.613 171.1C101.852 171.209 101.31 171.481 100.984 171.916C100.647 172.352 100.524 172.891 100.616 173.532C100.708 174.174 100.97 174.645 101.401 174.947C101.834 175.261 102.437 175.362 103.209 175.251L105.454 174.929L104.858 170.778Z" fill="black"/>
<path d="M93.2555 175.38L93.2051 171.708L88.8855 171.768L88.8625 170.094L93.1821 170.034L93.1295 166.201L88.2699 166.268L88.2469 164.594L95.1583 164.499L95.3303 177.026L88.4189 177.121L88.3959 175.447L93.2555 175.38Z" fill="black"/>
<path d="M69.3347 169.982C69.4955 169.366 69.7924 168.824 70.2253 168.354C70.6582 167.884 71.2394 167.559 71.969 167.377C72.6955 167.207 73.558 167.253 74.5565 167.514L76.7508 168.087L78.0344 163.176L80.0197 163.695L76.8561 175.799L72.6766 174.706C71.7478 174.464 71.0066 174.096 70.453 173.604C69.8848 173.121 69.5152 172.565 69.3444 171.938C69.1619 171.307 69.1587 170.655 69.3347 169.982ZM74.1332 169.134C73.3785 168.936 72.7714 168.957 72.3119 169.197C71.8493 169.448 71.5361 169.887 71.3723 170.514C71.0263 171.838 71.6022 172.695 73.0999 173.087L75.2942 173.66L76.3274 169.707L74.1332 169.134Z" fill="black"/>
<path d="M64.9325 158.512L65.7184 164.232L67.1693 164.821L69.0519 160.185L70.9531 160.957L66.2467 172.547L62.2441 170.922C61.3546 170.561 60.6673 170.101 60.1822 169.541C59.686 168.977 59.3939 168.373 59.3059 167.728C59.2067 167.079 59.2881 166.432 59.5499 165.787C59.8569 165.031 60.3592 164.432 61.0567 163.99C61.7387 163.555 62.5806 163.411 63.5826 163.559L62.6644 157.591L64.9325 158.512ZM66.5531 166.339L64.4517 165.485C63.7401 165.196 63.1342 165.158 62.6339 165.369C62.1226 165.576 61.745 165.979 61.5012 166.58C61.2574 167.18 61.2457 167.719 61.4661 168.197C61.6819 168.687 62.1512 169.078 62.8739 169.371L64.9752 170.224L66.5531 166.339Z" fill="black"/>
<path d="M56.6758 153.85C57.67 154.455 58.4469 155.244 59.0066 156.217C59.5498 157.194 59.8146 158.248 59.8011 159.377C59.7712 160.511 59.4379 161.601 58.8014 162.646C58.1649 163.692 57.353 164.483 56.3658 165.02C55.3683 165.551 54.3141 165.794 53.203 165.75C52.0755 165.709 51.0146 165.387 50.0204 164.781C49.0159 164.17 48.2421 163.375 47.6989 162.398C47.1393 161.426 46.8713 160.377 46.895 159.254C46.9188 158.13 47.2489 157.046 47.8854 156C48.5219 154.955 49.3369 154.158 50.3304 153.611C51.3176 153.074 52.3749 152.826 53.5025 152.866C54.6135 152.91 55.6713 153.238 56.6758 153.85ZM55.7491 155.372C55.0418 154.941 54.3147 154.716 53.5678 154.697C52.8146 154.688 52.1033 154.887 51.4339 155.295C50.748 155.706 50.1647 156.306 49.6842 157.095C49.2037 157.885 48.9414 158.673 48.8972 159.461C48.8427 160.243 48.9955 160.961 49.3555 161.616C49.7156 162.271 50.2492 162.813 50.9564 163.244C51.6637 163.674 52.3908 163.899 53.1377 163.919C53.8846 163.938 54.598 163.747 55.2776 163.346C55.9471 162.939 56.522 162.34 57.0026 161.551C57.4831 160.762 57.7537 159.971 57.8144 159.179C57.8586 158.391 57.7038 157.665 57.35 157C56.9899 156.345 56.4563 155.803 55.7491 155.372Z" fill="black"/>
<path d="M37.067 154.6L43.2295 148.016C43.9922 147.202 44.8446 146.791 45.7868 146.786C46.7202 146.772 47.5899 147.142 48.3959 147.897C49.2019 148.651 49.6332 149.499 49.6898 150.439C49.7376 151.371 49.3801 152.245 48.6175 153.06L47.1062 151.645C47.4747 151.234 47.6733 150.82 47.7019 150.403C47.7218 149.978 47.539 149.585 47.1536 149.224C46.7681 148.863 46.3639 148.707 45.941 148.755C45.5099 148.811 45.1098 149.037 44.7408 149.431L38.5782 156.015L37.067 154.6Z" fill="black"/>
<path d="M35.1091 149.877L37.7952 147.373L34.8496 144.213L36.0741 143.071L39.0197 146.232L41.8242 143.617L38.5105 140.062L39.735 138.921L44.4479 143.977L35.2838 152.519L30.5708 147.463L31.7953 146.322L35.1091 149.877Z" fill="black"/>
<path d="M34.1274 141.818C33.0883 142.465 32.0072 142.806 30.8839 142.841C29.7544 142.865 28.7035 142.608 27.7314 142.068C26.7427 141.525 25.9407 140.759 25.3255 139.771C24.6215 138.64 24.277 137.462 24.2918 136.237C24.2901 135.008 24.675 133.878 25.4463 132.847L26.7496 134.94C26.3606 135.564 26.1808 136.206 26.2102 136.866C26.2395 137.527 26.454 138.178 26.8536 138.819C27.2912 139.522 27.8392 140.05 28.4974 140.404C29.1557 140.757 29.8786 140.908 30.6661 140.856C31.4472 140.794 32.2299 140.518 33.0143 140.03C33.7987 139.542 34.3912 138.961 34.7918 138.287C35.186 137.604 35.3749 136.885 35.3584 136.132C35.3317 135.386 35.0995 134.661 34.6619 133.958C34.2623 133.316 33.7728 132.836 33.1933 132.519C32.6139 132.201 31.9584 132.079 31.2268 132.153L29.9235 130.059C31.1895 129.822 32.3735 129.976 33.4754 130.52C34.5709 131.053 35.4707 131.885 36.1747 133.016C36.7962 134.014 37.1347 135.069 37.19 136.179C37.2351 137.296 36.9973 138.356 36.4766 139.359C35.9495 140.351 35.1665 141.171 34.1274 141.818Z" fill="black"/>
<path d="M18.7963 125.859L20.3271 125.182L21.6745 128.227L31.5838 123.843L32.4141 125.719L22.5048 130.104L23.8595 133.165L22.3287 133.843L18.7963 125.859Z" fill="black"/>
<path d="M29.4125 117.098C29.6486 117.904 29.7229 118.67 29.6354 119.396C29.5363 120.125 29.2816 120.75 28.8713 121.27C28.461 121.79 27.9104 122.152 27.2194 122.354L26.6022 120.246C27.1069 120.049 27.474 119.722 27.7034 119.268C27.9295 118.801 27.9464 118.24 27.7542 117.583C27.5552 116.904 27.2388 116.421 26.8051 116.136C26.3598 115.854 25.8781 115.788 25.3598 115.94C24.9567 116.058 24.6639 116.275 24.4814 116.591C24.2955 116.896 24.1857 117.247 24.1521 117.644C24.1151 118.03 24.107 118.558 24.1279 119.227C24.1499 120.071 24.1298 120.77 24.0675 121.326C23.9904 121.874 23.7778 122.387 23.4299 122.864C23.0819 123.341 22.5336 123.689 21.7851 123.908C21.0941 124.11 20.4389 124.115 19.8195 123.921C19.2001 123.727 18.6611 123.36 18.2026 122.819C17.7441 122.278 17.3951 121.599 17.1557 120.781C16.815 119.618 16.8305 118.582 17.2019 117.673C17.5585 116.755 18.2318 116.108 19.2216 115.731L19.859 117.907C19.4315 118.07 19.1179 118.387 18.9183 118.858C18.7186 119.329 18.7099 119.876 18.892 120.498C19.0572 121.062 19.3361 121.48 19.7286 121.753C20.121 122.026 20.5879 122.083 21.1291 121.924C21.4977 121.816 21.7708 121.618 21.9486 121.328C22.1115 121.03 22.2114 120.688 22.2484 120.302C22.2854 119.916 22.2969 119.4 22.2827 118.754C22.2688 117.896 22.2988 117.187 22.3726 116.627C22.443 116.057 22.6579 115.531 23.0174 115.051C23.362 114.562 23.9143 114.206 24.6744 113.984C25.2848 113.805 25.9095 113.803 26.5486 113.979C27.1843 114.143 27.7618 114.493 28.2813 115.028C28.7859 115.556 29.163 116.246 29.4125 117.098Z" fill="black"/>
<path d="M68.5858 119.841C67.8047 120.622 67.8047 121.888 68.5858 122.669C69.3668 123.45 70.6332 123.45 71.4142 122.669L68.5858 119.841ZM117.255 76C117.255 74.8954 116.359 74 115.255 74H97.2548C96.1503 74 95.2548 74.8954 95.2548 76C95.2548 77.1046 96.1503 78 97.2548 78H113.255V94C113.255 95.1046 114.15 96 115.255 96C116.359 96 117.255 95.1046 117.255 94V76ZM71.4142 122.669L116.669 77.4142L113.841 74.5858L68.5858 119.841L71.4142 122.669Z" fill="#181818"/>
</svg>
