<svg width="116" height="20" viewBox="0 0 116 20" fill="none" xmlns="http://www.w3.org/2000/svg">
<path d="M15.3906 18.7501C15.259 18.7506 15.1307 18.7096 15.0238 18.6329L9.99994 14.9907L4.97612 18.6329C4.86879 18.7108 4.73948 18.7525 4.60689 18.752C4.4743 18.7515 4.3453 18.7089 4.23854 18.6302C4.13178 18.5516 4.05278 18.4411 4.01298 18.3146C3.97318 18.1881 3.97464 18.0523 4.01713 17.9267L5.97651 12.1232L0.898382 8.64073C0.788386 8.56539 0.705368 8.45684 0.661457 8.33095C0.617545 8.20506 0.615042 8.06843 0.654314 7.94102C0.693585 7.8136 0.772572 7.70209 0.879734 7.62276C0.986896 7.54344 1.11662 7.50046 1.24994 7.50011H7.51479L9.40541 1.68175C9.44614 1.55613 9.52561 1.44664 9.63242 1.36899C9.73923 1.29134 9.86789 1.24951 9.99994 1.24951C10.132 1.24951 10.2607 1.29134 10.3675 1.36899C10.4743 1.44664 10.5537 1.55613 10.5945 1.68175L12.4851 7.50206H18.7499C18.8834 7.502 19.0134 7.54467 19.1209 7.62385C19.2284 7.70302 19.3077 7.81453 19.3472 7.94204C19.3868 8.06955 19.3844 8.20636 19.3405 8.33244C19.2967 8.45852 19.2136 8.56724 19.1035 8.64269L14.0234 12.1232L15.9816 17.9251C16.0133 18.019 16.0222 18.1192 16.0076 18.2172C15.993 18.3153 15.9553 18.4085 15.8975 18.4891C15.8398 18.5697 15.7637 18.6354 15.6755 18.6808C15.5874 18.7262 15.4897 18.7499 15.3906 18.7501Z" fill="#F6AD01"/>
<path d="M39.3906 18.7501C39.259 18.7506 39.1307 18.7096 39.0238 18.6329L33.9999 14.9907L28.9761 18.6329C28.8688 18.7108 28.7395 18.7525 28.6069 18.752C28.4743 18.7515 28.3453 18.7089 28.2385 18.6302C28.1318 18.5516 28.0528 18.4411 28.013 18.3146C27.9732 18.1881 27.9746 18.0523 28.0171 17.9267L29.9765 12.1232L24.8984 8.64073C24.7884 8.56539 24.7054 8.45684 24.6615 8.33095C24.6175 8.20506 24.615 8.06843 24.6543 7.94102C24.6936 7.8136 24.7726 7.70209 24.8797 7.62276C24.9869 7.54344 25.1166 7.50046 25.2499 7.50011H31.5148L33.4054 1.68175C33.4461 1.55613 33.5256 1.44664 33.6324 1.36899C33.7392 1.29134 33.8679 1.24951 33.9999 1.24951C34.132 1.24951 34.2607 1.29134 34.3675 1.36899C34.4743 1.44664 34.5537 1.55613 34.5945 1.68175L36.4851 7.50206H42.7499C42.8834 7.502 43.0134 7.54467 43.1209 7.62385C43.2284 7.70302 43.3077 7.81453 43.3472 7.94204C43.3868 8.06955 43.3844 8.20636 43.3405 8.33244C43.2967 8.45852 43.2136 8.56724 43.1035 8.64269L38.0234 12.1232L39.9816 17.9251C40.0133 18.019 40.0222 18.1192 40.0076 18.2172C39.993 18.3153 39.9553 18.4085 39.8975 18.4891C39.8398 18.5697 39.7637 18.6354 39.6755 18.6808C39.5874 18.7262 39.4897 18.7499 39.3906 18.7501Z" fill="#F6AD01"/>
<path d="M63.3906 18.7501C63.259 18.7506 63.1307 18.7096 63.0238 18.6329L57.9999 14.9907L52.9761 18.6329C52.8688 18.7108 52.7395 18.7525 52.6069 18.752C52.4743 18.7515 52.3453 18.7089 52.2385 18.6302C52.1318 18.5516 52.0528 18.4411 52.013 18.3146C51.9732 18.1881 51.9746 18.0523 52.0171 17.9267L53.9765 12.1232L48.8984 8.64073C48.7884 8.56539 48.7054 8.45684 48.6615 8.33095C48.6175 8.20506 48.615 8.06843 48.6543 7.94102C48.6936 7.8136 48.7726 7.70209 48.8797 7.62276C48.9869 7.54344 49.1166 7.50046 49.2499 7.50011H55.5148L57.4054 1.68175C57.4461 1.55613 57.5256 1.44664 57.6324 1.36899C57.7392 1.29134 57.8679 1.24951 57.9999 1.24951C58.132 1.24951 58.2607 1.29134 58.3675 1.36899C58.4743 1.44664 58.5537 1.55613 58.5945 1.68175L60.4851 7.50206H66.7499C66.8834 7.502 67.0134 7.54467 67.1209 7.62385C67.2284 7.70302 67.3077 7.81453 67.3472 7.94204C67.3868 8.06955 67.3844 8.20636 67.3405 8.33244C67.2967 8.45852 67.2136 8.56724 67.1035 8.64269L62.0234 12.1232L63.9816 17.9251C64.0133 18.019 64.0222 18.1192 64.0076 18.2172C63.993 18.3153 63.9553 18.4085 63.8975 18.4891C63.8398 18.5697 63.7637 18.6354 63.6755 18.6808C63.5874 18.7262 63.4897 18.7499 63.3906 18.7501Z" fill="#F6AD01"/>
<path d="M87.3906 18.7501C87.259 18.7506 87.1307 18.7096 87.0238 18.6329L81.9999 14.9907L76.9761 18.6329C76.8688 18.7108 76.7395 18.7525 76.6069 18.752C76.4743 18.7515 76.3453 18.7089 76.2385 18.6302C76.1318 18.5516 76.0528 18.4411 76.013 18.3146C75.9732 18.1881 75.9746 18.0523 76.0171 17.9267L77.9765 12.1232L72.8984 8.64073C72.7884 8.56539 72.7054 8.45684 72.6615 8.33095C72.6175 8.20506 72.615 8.06843 72.6543 7.94102C72.6936 7.8136 72.7726 7.70209 72.8797 7.62276C72.9869 7.54344 73.1166 7.50046 73.2499 7.50011H79.5148L81.4054 1.68175C81.4461 1.55613 81.5256 1.44664 81.6324 1.36899C81.7392 1.29134 81.8679 1.24951 81.9999 1.24951C82.132 1.24951 82.2607 1.29134 82.3675 1.36899C82.4743 1.44664 82.5537 1.55613 82.5945 1.68175L84.4851 7.50206H90.7499C90.8834 7.502 91.0134 7.54467 91.1209 7.62385C91.2284 7.70302 91.3077 7.81453 91.3472 7.94204C91.3868 8.06955 91.3844 8.20636 91.3405 8.33244C91.2967 8.45852 91.2136 8.56724 91.1035 8.64269L86.0234 12.1232L87.9816 17.9251C88.0133 18.019 88.0222 18.1192 88.0076 18.2172C87.993 18.3153 87.9553 18.4085 87.8975 18.4891C87.8398 18.5697 87.7637 18.6354 87.6755 18.6808C87.5874 18.7262 87.4897 18.7499 87.3906 18.7501Z" fill="#F6AD01"/>
<path d="M111.391 18.7501C111.259 18.7506 111.131 18.7096 111.024 18.6329L106 14.9907L100.976 18.6329C100.869 18.7108 100.739 18.7525 100.607 18.752C100.474 18.7515 100.345 18.7089 100.239 18.6302C100.132 18.5516 100.053 18.4411 100.013 18.3146C99.9732 18.1881 99.9746 18.0523 100.017 17.9267L101.977 12.1232L96.8984 8.64073C96.7884 8.56539 96.7054 8.45684 96.6615 8.33095C96.6175 8.20506 96.615 8.06843 96.6543 7.94102C96.6936 7.8136 96.7726 7.70209 96.8797 7.62276C96.9869 7.54344 97.1166 7.50046 97.2499 7.50011H103.515L105.405 1.68175C105.446 1.55613 105.526 1.44664 105.632 1.36899C105.739 1.29134 105.868 1.24951 106 1.24951C106.132 1.24951 106.261 1.29134 106.367 1.36899C106.474 1.44664 106.554 1.55613 106.594 1.68175L108.485 7.50206H114.75C114.883 7.502 115.013 7.54467 115.121 7.62385C115.228 7.70302 115.308 7.81453 115.347 7.94204C115.387 8.06955 115.384 8.20636 115.341 8.33244C115.297 8.45852 115.214 8.56724 115.103 8.64269L110.023 12.1232L111.982 17.9251C112.013 18.019 112.022 18.1192 112.008 18.2172C111.993 18.3153 111.955 18.4085 111.898 18.4891C111.84 18.5697 111.764 18.6354 111.676 18.6808C111.587 18.7262 111.49 18.7499 111.391 18.7501Z" fill="#F6AD01"/>
</svg>
