<svg width="27" height="29" viewBox="0 0 27 29" fill="none" xmlns="http://www.w3.org/2000/svg">
<path d="M26.6484 12.4099L26.5115 11.8293H13.8911V17.1707H21.4316C20.6488 20.8883 17.016 22.8452 14.0486 22.8452C11.8895 22.8452 9.6135 21.937 8.10709 20.4772C7.31231 19.6947 6.67967 18.7631 6.24539 17.7358C5.81111 16.7085 5.58372 15.6056 5.57623 14.4903C5.57623 12.2404 6.58736 9.98986 8.05865 8.50949C9.52994 7.02912 11.752 6.20084 13.9614 6.20084C16.4916 6.20084 18.305 7.54438 18.9831 8.15711L22.7788 4.38141C21.6654 3.40297 18.6065 0.9375 13.8391 0.9375C10.1608 0.9375 6.63398 2.34643 4.0559 4.91604C1.51172 7.44629 0.194824 11.1051 0.194824 14.5C0.194824 17.8949 1.44088 21.3709 3.90635 23.9211C6.54074 26.6409 10.2716 28.0625 14.1133 28.0625C17.6087 28.0625 20.9218 26.6929 23.2832 24.2081C25.6045 21.762 26.8052 18.3774 26.8052 14.8294C26.8052 13.3357 26.655 12.4487 26.6484 12.4099Z" fill="#F6AD01"/>
</svg>
